<?xml version="1.0" encoding="UTF-8" standalone="no"?>
<!-- Generator: Gravit.io -->
<svg xmlns="http://www.w3.org/2000/svg" xmlns:xlink="http://www.w3.org/1999/xlink" style="isolation:isolate" viewBox="1085.18 140 2898.202 388.352" width="2898.202pt" height="388.352pt"><defs><clipPath id="_clipPath_3QPeze3M37PU8SgDQrtMN3U1fPd9nOlN"><rect x="1085.18" y="140" width="2898.202" height="388.352"/></clipPath></defs><g clip-path="url(#_clipPath_3QPeze3M37PU8SgDQrtMN3U1fPd9nOlN)"><rect x="1085.18" y="140" width="2898.202" height="388.352" style="fill:rgb(26,26,26)" fill-opacity="0"/><g><path d=" M 1206 235 C 1205.99 226.45 1207.7 217.98 1211.03 210.1 C 1214.25 202.51 1218.91 195.6 1224.76 189.76 C 1230.6 183.91 1237.51 179.25 1245.12 176.02 C 1252.99 172.7 1261.45 170.99 1270 171 C 1278.55 170.99 1287.01 172.7 1294.88 176.02 C 1302.49 179.25 1309.4 183.91 1315.24 189.76 C 1321.09 195.6 1325.75 202.51 1328.98 210.12 C 1332.3 217.99 1334.01 226.45 1334 235 C 1334.01 243.55 1332.3 252.01 1328.98 259.88 C 1325.75 267.49 1321.09 274.4 1315.24 280.24 C 1309.4 286.09 1302.49 290.75 1294.88 293.98 C 1287.01 297.3 1278.55 299.01 1270 299 C 1261.45 299.01 1252.99 297.3 1245.12 293.98 C 1237.51 290.75 1230.6 286.09 1224.76 280.24 C 1218.91 274.4 1214.25 267.49 1211.02 259.88 C 1207.7 252.01 1205.99 243.55 1206 235 Z  M 1175 235 C 1174.99 222.3 1177.53 209.73 1182.47 198.04 C 1187.25 186.75 1194.17 176.5 1202.84 167.84 C 1211.5 159.17 1221.75 152.25 1233.04 147.47 C 1244.73 142.53 1257.3 139.99 1270 140 C 1282.7 139.99 1295.27 142.53 1306.96 147.47 C 1318.25 152.25 1328.5 159.17 1337.16 167.84 C 1345.83 176.5 1352.75 186.75 1357.53 198.04 C 1362.47 209.73 1365.01 222.3 1365 235 C 1365.01 247.7 1362.47 260.27 1357.53 271.96 C 1352.75 283.25 1345.83 293.5 1337.16 302.16 C 1328.5 310.83 1318.25 317.75 1306.96 322.53 C 1295.27 327.47 1282.7 330.01 1270 330 C 1257.3 330.01 1244.73 327.47 1233.04 322.53 C 1221.75 317.75 1211.5 310.83 1202.84 302.16 C 1194.17 293.5 1187.25 283.25 1182.47 271.96 C 1177.53 260.27 1174.99 247.7 1175 235 Z " fill-rule="evenodd" fill="rgb(255,255,255)"/><path d=" M 1122.49 507.638 L 1122.5 508.208 C 1122.5 508.218 1122.5 508.218 1122.5 508.228 C 1122.5 512.918 1120.71 517.448 1117.49 520.868 C 1114.14 524.448 1109.49 526.548 1104.59 526.708 C 1104.59 526.708 1104.58 526.708 1104.58 526.708 L 1104.01 526.718 C 1104 526.718 1104 526.718 1103.99 526.718 C 1099.3 526.718 1094.77 524.928 1091.35 521.708 C 1087.77 518.358 1085.67 513.708 1085.51 508.808 C 1085.29 501.908 1085.18 494.998 1085.18 488.088 C 1085.18 488.088 1085.18 488.088 1085.18 488.088 L 1085.2 482.768 C 1085.2 482.758 1085.2 482.758 1085.2 482.758 C 1085.25 475.848 1085.48 468.938 1085.89 462.038 C 1086.44 452.688 1087.44 443.378 1088.87 434.128 C 1089.88 427.578 1091.37 421.108 1093.32 414.778 C 1093.72 413.468 1094.15 412.168 1094.61 410.878 C 1095.08 409.558 1095.58 408.248 1096.1 406.948 C 1097.94 402.388 1100.07 397.958 1102.49 393.678 C 1105.24 388.818 1108.25 384.118 1111.52 379.598 C 1112.47 378.278 1113.45 376.978 1114.44 375.678 C 1115.48 374.328 1116.54 372.988 1117.61 371.658 C 1121.12 367.348 1124.8 363.168 1128.64 359.148 C 1133.11 354.468 1137.74 349.938 1142.51 345.568 C 1145.92 342.448 1150.37 340.718 1154.99 340.718 C 1155 340.718 1155.01 340.718 1155.01 340.718 L 1155.8 340.738 C 1155.81 340.738 1155.82 340.738 1155.82 340.738 C 1160.72 340.948 1165.34 343.108 1168.65 346.738 C 1171.77 350.138 1173.5 354.588 1173.5 359.208 C 1173.5 359.218 1173.5 359.228 1173.5 359.228 L 1173.48 360.018 C 1173.48 360.028 1173.48 360.038 1173.48 360.038 C 1173.27 364.938 1171.11 369.558 1167.48 372.868 C 1163.32 376.678 1159.29 380.628 1155.39 384.708 C 1152.23 388.008 1149.21 391.438 1146.34 394.988 C 1145.48 396.048 1144.63 397.118 1143.79 398.208 C 1143.02 399.218 1142.26 400.238 1141.51 401.278 C 1139.04 404.688 1136.76 408.238 1134.69 411.898 C 1133.07 414.758 1131.65 417.718 1130.43 420.758 C 1130.09 421.588 1129.77 422.428 1129.47 423.278 C 1129.19 424.068 1128.93 424.858 1128.68 425.668 C 1127.26 430.288 1126.17 435.008 1125.43 439.778 C 1124.17 447.878 1123.31 456.038 1122.83 464.218 C 1122.46 470.488 1122.24 476.768 1122.19 483.058 L 1122.17 487.668 C 1122.17 494.318 1122.28 500.978 1122.49 507.628 C 1122.49 507.628 1122.49 507.638 1122.49 507.638 Z " fill="rgb(255,255,255)"/><path d=" M 1354.52 372.868 C 1350.89 369.558 1348.73 364.938 1348.52 360.038 C 1348.52 360.038 1348.52 360.028 1348.52 360.018 L 1348.5 359.228 C 1348.5 359.228 1348.5 359.218 1348.5 359.208 C 1348.5 354.588 1350.23 350.138 1353.35 346.738 C 1356.66 343.108 1361.28 340.948 1366.18 340.738 C 1366.18 340.738 1366.19 340.738 1366.2 340.738 L 1366.99 340.718 C 1366.99 340.718 1367 340.718 1367.01 340.718 C 1371.63 340.718 1376.08 342.448 1379.48 345.568 C 1385.67 351.228 1391.61 357.158 1397.26 363.358 C 1401.91 368.448 1406.27 373.798 1410.32 379.378 C 1414.54 385.208 1418.34 391.328 1421.67 397.708 C 1424.52 403.168 1426.86 408.878 1428.68 414.778 C 1429.59 417.718 1430.39 420.698 1431.08 423.708 C 1431.87 427.218 1432.56 430.758 1433.16 434.318 C 1433.58 436.878 1433.95 439.438 1434.28 442.008 C 1434.65 444.898 1434.97 447.788 1435.25 450.688 C 1435.44 452.748 1435.62 454.818 1435.77 456.888 C 1435.94 459.118 1436.08 461.358 1436.2 463.598 C 1436.57 470.298 1436.77 477.018 1436.81 483.728 C 1436.81 483.728 1436.81 483.738 1436.81 483.738 L 1436.83 488.178 C 1436.83 488.178 1436.83 488.178 1436.83 488.178 C 1436.83 495.058 1436.71 501.938 1436.49 508.808 C 1436.33 513.708 1434.23 518.358 1430.65 521.708 C 1427.23 524.928 1422.7 526.718 1418.01 526.718 C 1418 526.718 1418 526.718 1417.99 526.718 L 1417.42 526.708 C 1417.42 526.708 1417.41 526.708 1417.41 526.708 C 1412.51 526.548 1407.86 524.448 1404.51 520.868 C 1401.29 517.448 1399.5 512.918 1399.5 508.228 C 1399.5 508.218 1399.5 508.218 1399.5 508.208 L 1399.51 507.638 C 1399.51 507.638 1399.51 507.628 1399.51 507.628 C 1399.72 501.058 1399.82 494.488 1399.82 487.908 L 1399.81 483.958 C 1399.78 477.848 1399.59 471.728 1399.25 465.628 C 1399.14 463.618 1399.01 461.608 1398.87 459.598 C 1398.73 457.788 1398.58 455.978 1398.41 454.168 C 1398.18 451.678 1397.9 449.178 1397.58 446.698 C 1397.31 444.578 1397 442.458 1396.65 440.348 C 1396.18 437.528 1395.63 434.718 1395 431.928 C 1394.51 429.818 1393.96 427.728 1393.32 425.658 C 1392.17 421.918 1390.68 418.298 1388.86 414.828 C 1386.37 410.058 1383.53 405.468 1380.37 401.108 C 1377.14 396.648 1373.66 392.378 1369.94 388.308 C 1365.03 382.938 1359.88 377.788 1354.52 372.868 Z " fill="rgb(255,255,255)"/><path d=" M 1177.5 460.218 L 1177.5 460.028 C 1177.5 460.028 1177.5 460.028 1177.5 460.028 C 1177.55 455.118 1179.55 450.428 1183.06 447.008 C 1186.51 443.618 1191.16 441.718 1195.99 441.718 C 1195.99 441.718 1196 441.718 1196 441.718 L 1196.19 441.718 C 1196.19 441.718 1196.19 441.718 1196.19 441.718 C 1201.1 441.768 1205.79 443.768 1209.21 447.278 L 1242.99 481.768 L 1318.78 404.278 C 1318.78 404.278 1318.78 404.278 1318.78 404.278 C 1322.21 400.768 1326.89 398.768 1331.8 398.718 C 1331.8 398.718 1331.8 398.718 1331.8 398.718 L 1331.99 398.718 C 1332 398.718 1332 398.718 1332 398.718 C 1336.83 398.718 1341.48 400.608 1344.94 403.998 C 1348.45 407.428 1350.45 412.108 1350.5 417.018 C 1350.5 417.018 1350.5 417.018 1350.5 417.018 L 1350.5 417.208 C 1350.5 417.218 1350.5 417.218 1350.5 417.218 C 1350.5 422.048 1348.61 426.698 1345.22 430.158 L 1256.31 521.068 C 1252.81 524.658 1248.01 526.688 1243 526.698 C 1238 526.688 1233.2 524.658 1229.7 521.078 L 1182.79 473.158 C 1179.4 469.708 1177.5 465.058 1177.5 460.228 C 1177.5 460.228 1177.5 460.218 1177.5 460.218 Z " fill="rgb(255,255,255)"/><path d=" M 1512.618 242.771 L 1604.693 242.771 L 1604.693 242.771 Q 1660.825 242.771 1688.89 271.822 L 1688.89 271.822 L 1688.89 271.822 Q 1712.032 294.964 1712.525 332.385 L 1712.525 332.385 L 1712.525 332.385 Q 1712.525 369.313 1688.89 392.947 L 1688.89 392.947 L 1688.89 392.947 Q 1660.332 421.998 1604.693 421.998 L 1604.693 421.998 L 1531.329 421.998 L 1531.329 508.164 L 1531.329 508.164 Q 1531.329 515.55 1525.912 520.966 L 1525.912 520.966 L 1525.912 520.966 Q 1520.496 526.382 1512.618 526.382 L 1512.618 526.382 L 1512.618 526.382 Q 1505.232 526.382 1499.816 520.966 L 1499.816 520.966 L 1499.816 520.966 Q 1494.4 515.55 1494.4 508.164 L 1494.4 508.164 L 1494.4 261.482 L 1494.4 261.482 Q 1494.4 254.096 1499.816 248.434 L 1499.816 248.434 L 1499.816 248.434 Q 1505.232 242.771 1512.618 242.771 L 1512.618 242.771 Z  M 1531.329 387.531 L 1601.247 387.531 L 1601.247 387.531 Q 1642.607 387.531 1661.317 369.806 L 1661.317 369.806 L 1661.317 369.806 Q 1676.088 356.019 1675.596 332.385 L 1675.596 332.385 L 1675.596 332.385 Q 1675.596 294.964 1638.175 282.654 L 1638.175 282.654 L 1638.175 282.654 Q 1623.404 277.73 1601.247 277.238 L 1601.247 277.238 L 1531.329 277.238 L 1531.329 387.531 Z  M 1781.95 434.8 L 1781.95 434.8 Q 1785.397 461.881 1802.876 477.883 L 1802.876 477.883 L 1802.876 477.883 Q 1820.356 493.885 1851.13 493.885 L 1851.13 493.885 L 1851.13 493.885 Q 1881.903 493.885 1903.568 484.038 L 1903.568 484.038 L 1903.568 484.038 Q 1910.461 480.591 1915.878 480.345 L 1915.878 480.345 L 1915.878 480.345 Q 1921.294 480.099 1925.971 484.53 L 1925.971 484.53 L 1925.971 484.53 Q 1930.649 488.962 1930.649 494.378 L 1930.649 494.378 L 1930.649 494.378 Q 1930.649 505.21 1922.032 509.642 L 1922.032 509.642 L 1922.032 509.642 Q 1913.416 514.073 1906.522 517.52 L 1906.522 517.52 L 1906.522 517.52 Q 1899.629 520.966 1891.751 523.428 L 1891.751 523.428 L 1891.751 523.428 Q 1873.533 528.352 1849.406 528.352 L 1849.406 528.352 L 1849.406 528.352 Q 1799.676 528.352 1772.349 500.533 L 1772.349 500.533 L 1772.349 500.533 Q 1745.022 472.713 1745.022 421.505 L 1745.022 421.505 L 1745.022 421.505 Q 1745.022 377.191 1768.164 347.648 L 1768.164 347.648 L 1768.164 347.648 Q 1794.26 314.659 1841.528 314.659 L 1841.528 314.659 L 1841.528 314.659 Q 1886.827 314.659 1912.923 345.187 L 1912.923 345.187 L 1912.923 345.187 Q 1937.542 373.745 1937.542 416.582 L 1937.542 416.582 L 1937.542 416.582 Q 1937.542 423.967 1932.372 429.384 L 1932.372 429.384 L 1932.372 429.384 Q 1927.202 434.8 1919.324 434.8 L 1919.324 434.8 L 1781.95 434.8 Z  M 1841.528 345.679 L 1841.528 345.679 L 1841.528 345.679 Q 1805.584 345.679 1789.336 377.684 L 1789.336 377.684 L 1789.336 377.684 Q 1783.427 389.008 1781.95 404.765 L 1781.95 404.765 L 1901.106 404.765 L 1901.106 404.765 Q 1899.629 376.206 1879.934 359.466 L 1879.934 359.466 L 1879.934 359.466 Q 1864.178 345.679 1841.528 345.679 Z  M 2023.217 335.339 L 2023.217 352.572 L 2023.217 352.572 Q 2051.775 314.659 2086.734 314.659 L 2086.734 314.659 L 2088.703 314.659 L 2088.703 314.659 Q 2096.089 314.659 2101.259 319.829 L 2101.259 319.829 L 2101.259 319.829 Q 2106.429 324.999 2106.429 332.877 L 2106.429 332.877 L 2106.429 332.877 Q 2106.429 340.755 2101.013 345.433 L 2101.013 345.433 L 2101.013 345.433 Q 2095.596 350.11 2087.718 350.11 L 2087.718 350.11 L 2085.749 350.11 L 2085.749 350.11 Q 2065.561 350.11 2049.805 359.958 L 2049.805 359.958 L 2049.805 359.958 Q 2034.049 369.806 2023.217 385.562 L 2023.217 385.562 L 2023.217 508.164 L 2023.217 508.164 Q 2023.217 515.55 2017.8 520.966 L 2017.8 520.966 L 2017.8 520.966 Q 2012.384 526.382 2004.998 526.382 L 2004.998 526.382 L 2004.998 526.382 Q 1997.613 526.382 1992.197 520.966 L 1992.197 520.966 L 1992.197 520.966 Q 1986.78 515.55 1986.78 508.164 L 1986.78 508.164 L 1986.78 335.339 L 1986.78 335.339 Q 1986.78 327.953 1991.95 322.291 L 1991.95 322.291 L 1991.95 322.291 Q 1997.12 316.628 2004.998 316.628 L 2004.998 316.628 L 2004.998 316.628 Q 2012.384 316.628 2017.8 322.045 L 2017.8 322.045 L 2017.8 322.045 Q 2023.217 327.461 2023.217 335.339 L 2023.217 335.339 Z  M 2207.859 494.378 L 2207.859 494.378 L 2207.859 494.378 Q 2252.666 494.378 2252.173 466.312 L 2252.173 466.312 L 2252.173 466.312 Q 2252.173 457.449 2243.311 452.525 L 2243.311 452.525 L 2243.311 452.525 Q 2234.448 447.602 2221.153 444.155 L 2221.153 444.155 L 2221.153 444.155 Q 2207.859 440.708 2192.103 436.769 L 2192.103 436.769 L 2192.103 436.769 Q 2176.347 432.83 2162.56 425.937 L 2162.56 425.937 L 2162.56 425.937 Q 2148.773 419.044 2139.911 407.965 L 2139.911 407.965 L 2139.911 407.965 Q 2131.048 396.886 2131.048 380.638 L 2131.048 380.638 L 2131.048 380.638 Q 2131.048 364.389 2135.972 352.818 L 2135.972 352.818 L 2135.972 352.818 Q 2140.895 341.247 2150.743 332.877 L 2150.743 332.877 L 2150.743 332.877 Q 2171.915 314.659 2209.829 314.659 L 2209.829 314.659 L 2209.829 314.659 Q 2240.356 314.659 2268.422 324.507 L 2268.422 324.507 L 2268.422 324.507 Q 2273.838 326.476 2277.039 331.154 L 2277.039 331.154 L 2277.039 331.154 Q 2280.239 335.831 2280.239 341.001 L 2280.239 341.001 L 2280.239 341.001 Q 2280.239 346.171 2275.561 351.095 L 2275.561 351.095 L 2275.561 351.095 Q 2270.884 356.019 2266.452 356.019 L 2266.452 356.019 L 2266.452 356.019 Q 2262.021 356.019 2255.62 354.049 L 2255.62 354.049 L 2255.62 354.049 Q 2236.417 348.141 2213.275 348.141 L 2213.275 348.141 L 2213.275 348.141 Q 2190.133 348.141 2178.316 356.019 L 2178.316 356.019 L 2178.316 356.019 Q 2166.499 363.897 2166.499 375.468 L 2166.499 375.468 L 2166.499 375.468 Q 2166.499 387.039 2175.362 392.209 L 2175.362 392.209 L 2175.362 392.209 Q 2184.225 397.379 2197.765 401.318 L 2197.765 401.318 L 2197.765 401.318 Q 2211.306 405.257 2227.308 408.704 L 2227.308 408.704 L 2227.308 408.704 Q 2243.311 412.15 2256.605 419.044 L 2256.605 419.044 L 2256.605 419.044 Q 2288.117 435.292 2288.117 468.774 L 2288.117 468.774 L 2288.117 468.774 Q 2288.117 494.87 2268.422 510.626 L 2268.422 510.626 L 2268.422 510.626 Q 2247.742 528.352 2209.829 528.352 L 2209.829 528.352 L 2209.829 528.352 Q 2169.453 528.352 2136.956 510.134 L 2136.956 510.134 L 2136.956 510.134 Q 2130.063 505.21 2129.817 498.071 L 2129.817 498.071 L 2129.817 498.071 Q 2129.571 490.931 2134.248 485.761 L 2134.248 485.761 L 2134.248 485.761 Q 2138.926 480.591 2143.85 480.591 L 2143.85 480.591 L 2143.85 480.591 Q 2148.773 480.591 2156.652 484.038 L 2156.652 484.038 L 2156.652 484.038 Q 2179.793 494.378 2207.859 494.378 Z  M 2425.984 314.659 L 2425.984 314.659 L 2425.984 314.659 Q 2472.76 314.659 2501.318 344.202 L 2501.318 344.202 L 2501.318 344.202 Q 2529.876 374.237 2528.891 421.505 L 2528.891 421.505 L 2528.891 421.505 Q 2528.891 469.266 2501.318 498.809 L 2501.318 498.809 L 2501.318 498.809 Q 2472.76 528.352 2425.984 528.352 L 2425.984 528.352 L 2425.984 528.352 Q 2378.715 528.352 2351.142 498.809 L 2351.142 498.809 L 2351.142 498.809 Q 2322.584 469.266 2322.584 421.505 L 2322.584 421.505 L 2322.584 421.505 Q 2322.584 373.252 2351.142 344.202 L 2351.142 344.202 L 2351.142 344.202 Q 2378.715 314.659 2425.984 314.659 Z  M 2380.931 478.375 L 2380.931 478.375 L 2380.931 478.375 Q 2390.532 486.992 2402.596 490.931 L 2402.596 490.931 L 2402.596 490.931 Q 2414.659 494.87 2425.984 494.87 L 2425.984 494.87 L 2425.984 494.87 Q 2437.308 494.87 2449.125 490.931 L 2449.125 490.931 L 2449.125 490.931 Q 2460.943 486.992 2470.79 478.129 L 2470.79 478.129 L 2470.79 478.129 Q 2492.455 458.434 2492.455 421.013 L 2492.455 421.013 L 2492.455 421.013 Q 2492.455 384.577 2470.79 364.389 L 2470.79 364.389 L 2470.79 364.389 Q 2452.572 347.648 2425.984 348.141 L 2425.984 348.141 L 2425.984 348.141 Q 2382.162 348.141 2365.421 387.531 L 2365.421 387.531 L 2365.421 387.531 Q 2359.512 401.81 2359.512 421.505 L 2359.512 421.505 L 2359.512 421.505 Q 2359.512 441.201 2365.421 455.48 L 2365.421 455.48 L 2365.421 455.48 Q 2371.329 469.759 2380.931 478.375 Z  M 2683.006 348.633 L 2683.006 348.633 L 2683.006 348.633 Q 2647.555 348.633 2616.535 387.531 L 2616.535 387.531 L 2616.535 508.164 L 2616.535 508.164 Q 2616.535 515.55 2611.119 520.966 L 2611.119 520.966 L 2611.119 520.966 Q 2605.702 526.382 2598.317 526.382 L 2598.317 526.382 L 2598.317 526.382 Q 2590.931 526.382 2585.515 520.966 L 2585.515 520.966 L 2585.515 520.966 Q 2580.099 515.55 2580.099 508.164 L 2580.099 508.164 L 2580.099 335.339 L 2580.099 335.339 Q 2580.099 327.461 2585.269 322.045 L 2585.269 322.045 L 2585.269 322.045 Q 2590.439 316.628 2598.317 316.628 L 2598.317 316.628 L 2598.317 316.628 Q 2605.702 316.628 2611.119 321.798 L 2611.119 321.798 L 2611.119 321.798 Q 2616.535 326.968 2616.535 335.339 L 2616.535 335.339 L 2616.535 352.08 L 2616.535 352.08 Q 2632.783 335.339 2644.6 327.953 L 2644.6 327.953 L 2644.6 327.953 Q 2667.25 314.659 2688.176 314.659 L 2688.176 314.659 L 2688.176 314.659 Q 2709.102 314.659 2722.397 320.814 L 2722.397 320.814 L 2722.397 320.814 Q 2735.691 326.968 2745.046 338.293 L 2745.046 338.293 L 2745.046 338.293 Q 2763.756 360.45 2763.756 393.44 L 2763.756 393.44 L 2763.756 508.164 L 2763.756 508.164 Q 2763.756 515.55 2758.34 520.966 L 2758.34 520.966 L 2758.34 520.966 Q 2752.924 526.382 2745.538 526.382 L 2745.538 526.382 L 2745.538 526.382 Q 2738.153 526.382 2732.737 520.966 L 2732.737 520.966 L 2732.737 520.966 Q 2727.32 515.55 2727.32 508.164 L 2727.32 508.164 L 2727.32 397.379 L 2727.32 397.379 Q 2727.32 374.729 2716.98 361.681 L 2716.98 361.681 L 2716.98 361.681 Q 2706.64 348.633 2683.006 348.633 Z  M 2850.415 242.771 L 2942.491 242.771 L 2942.491 242.771 Q 2998.622 242.771 3026.688 271.822 L 3026.688 271.822 L 3026.688 271.822 Q 3049.829 294.964 3050.322 332.385 L 3050.322 332.385 L 3050.322 332.385 Q 3050.322 369.313 3026.688 392.947 L 3026.688 392.947 L 3026.688 392.947 Q 2998.13 421.998 2942.491 421.998 L 2942.491 421.998 L 2869.126 421.998 L 2869.126 508.164 L 2869.126 508.164 Q 2869.126 515.55 2863.71 520.966 L 2863.71 520.966 L 2863.71 520.966 Q 2858.294 526.382 2850.415 526.382 L 2850.415 526.382 L 2850.415 526.382 Q 2843.03 526.382 2837.614 520.966 L 2837.614 520.966 L 2837.614 520.966 Q 2832.197 515.55 2832.197 508.164 L 2832.197 508.164 L 2832.197 261.482 L 2832.197 261.482 Q 2832.197 254.096 2837.614 248.434 L 2837.614 248.434 L 2837.614 248.434 Q 2843.03 242.771 2850.415 242.771 L 2850.415 242.771 Z  M 2869.126 387.531 L 2939.044 387.531 L 2939.044 387.531 Q 2980.404 387.531 2999.114 369.806 L 2999.114 369.806 L 2999.114 369.806 Q 3013.886 356.019 3013.393 332.385 L 3013.393 332.385 L 3013.393 332.385 Q 3013.393 294.964 2975.972 282.654 L 2975.972 282.654 L 2975.972 282.654 Q 2961.201 277.73 2939.044 277.238 L 2939.044 277.238 L 2869.126 277.238 L 2869.126 387.531 Z  M 3096.606 335.339 L 3096.606 335.339 Q 3096.606 326.968 3102.022 321.798 L 3102.022 321.798 L 3102.022 321.798 Q 3107.438 316.628 3115.316 316.628 L 3115.316 316.628 L 3115.316 316.628 Q 3123.194 316.628 3128.118 321.798 L 3128.118 321.798 L 3128.118 321.798 Q 3133.042 326.968 3133.042 335.339 L 3133.042 335.339 L 3133.042 508.164 L 3133.042 508.164 Q 3133.042 515.55 3128.118 520.966 L 3128.118 520.966 L 3128.118 520.966 Q 3123.194 526.382 3115.316 526.382 L 3115.316 526.382 L 3115.316 526.382 Q 3107.438 526.382 3102.022 520.966 L 3102.022 520.966 L 3102.022 520.966 Q 3096.606 515.55 3096.606 508.164 L 3096.606 508.164 L 3096.606 335.339 Z  M 3136.981 254.589 L 3136.981 256.066 L 3136.981 256.066 Q 3136.981 264.929 3131.072 270.837 L 3131.072 270.837 L 3131.072 270.837 Q 3125.164 276.746 3116.301 276.746 L 3116.301 276.746 L 3113.839 276.746 L 3113.839 276.746 Q 3104.976 276.746 3099.314 270.837 L 3099.314 270.837 L 3099.314 270.837 Q 3093.651 264.929 3093.651 256.066 L 3093.651 256.066 L 3093.651 254.589 L 3093.651 254.589 Q 3093.651 245.726 3099.56 239.817 L 3099.56 239.817 L 3099.56 239.817 Q 3105.468 233.909 3113.839 233.909 L 3113.839 233.909 L 3116.301 233.909 L 3116.301 233.909 Q 3125.164 233.909 3131.072 239.817 L 3131.072 239.817 L 3131.072 239.817 Q 3136.981 245.726 3136.981 254.589 L 3136.981 254.589 Z  M 3296.02 493.885 L 3296.02 493.885 L 3296.02 493.885 Q 3318.669 493.885 3338.857 483.053 L 3338.857 483.053 L 3338.857 483.053 Q 3345.75 479.114 3351.659 478.868 L 3351.659 478.868 L 3351.659 478.868 Q 3357.567 478.622 3361.999 484.038 L 3361.999 484.038 L 3361.999 484.038 Q 3366.43 489.454 3366.43 496.593 L 3366.43 496.593 L 3366.43 496.593 Q 3366.43 503.733 3357.075 509.642 L 3357.075 509.642 L 3357.075 509.642 Q 3328.517 528.352 3293.065 528.352 L 3293.065 528.352 L 3293.065 528.352 Q 3248.259 528.352 3217.239 500.286 L 3217.239 500.286 L 3217.239 500.286 Q 3184.742 470.251 3185.234 421.505 L 3185.234 421.505 L 3185.234 421.505 Q 3185.234 372.76 3217.239 342.725 L 3217.239 342.725 L 3217.239 342.725 Q 3247.766 314.167 3293.065 314.659 L 3293.065 314.659 L 3293.065 314.659 Q 3317.192 314.659 3332.702 320.814 L 3332.702 320.814 L 3332.702 320.814 Q 3348.212 326.968 3357.321 333.123 L 3357.321 333.123 L 3357.321 333.123 Q 3366.43 339.278 3366.43 346.664 L 3366.43 346.664 L 3366.43 346.664 Q 3366.43 354.049 3361.999 358.973 L 3361.999 358.973 L 3361.999 358.973 Q 3357.567 363.897 3353.136 363.897 L 3353.136 363.897 L 3353.136 363.897 Q 3346.242 363.897 3338.857 359.958 L 3338.857 359.958 L 3338.857 359.958 Q 3318.177 348.633 3296.02 349.126 L 3296.02 349.126 L 3296.02 349.126 Q 3260.568 349.126 3241.119 369.067 L 3241.119 369.067 L 3241.119 369.067 Q 3221.67 389.008 3221.67 421.505 L 3221.67 421.505 L 3221.67 421.505 Q 3221.67 454.003 3241.119 473.944 L 3241.119 473.944 L 3241.119 473.944 Q 3260.568 493.885 3296.02 493.885 Z  M 3511.682 401.318 L 3584.554 497.824 L 3584.554 497.824 Q 3588.494 502.748 3588.494 509.888 L 3588.494 509.888 L 3588.494 509.888 Q 3588.494 517.027 3583.324 521.705 L 3583.324 521.705 L 3583.324 521.705 Q 3578.154 526.382 3571.753 526.382 L 3571.753 526.382 L 3571.753 526.382 Q 3561.905 526.382 3555.012 518.997 L 3555.012 518.997 L 3485.586 424.46 L 3450.627 456.464 L 3450.627 508.164 L 3450.627 508.164 Q 3450.627 515.55 3445.211 520.966 L 3445.211 520.966 L 3445.211 520.966 Q 3439.795 526.382 3432.409 526.382 L 3432.409 526.382 L 3432.409 526.382 Q 3425.023 526.382 3419.607 520.966 L 3419.607 520.966 L 3419.607 520.966 Q 3414.191 515.55 3414.191 508.164 L 3414.191 508.164 L 3414.191 246.218 L 3414.191 246.218 Q 3414.191 238.832 3419.361 233.416 L 3419.361 233.416 L 3419.361 233.416 Q 3424.531 228 3432.409 228 L 3432.409 228 L 3432.409 228 Q 3439.795 228 3445.211 233.416 L 3445.211 233.416 L 3445.211 233.416 Q 3450.627 238.832 3450.627 246.218 L 3450.627 246.218 L 3450.627 411.165 L 3546.641 322.537 L 3546.641 322.537 Q 3553.042 317.613 3561.166 317.613 L 3561.166 317.613 L 3561.166 317.613 Q 3569.291 317.613 3572.984 323.276 L 3572.984 323.276 L 3572.984 323.276 Q 3576.676 328.938 3576.676 333.369 L 3576.676 333.369 L 3576.676 333.369 Q 3576.676 342.232 3569.783 349.126 L 3569.783 349.126 L 3511.682 401.318 Z  M 3658.904 434.8 L 3658.904 434.8 Q 3662.351 461.881 3679.83 477.883 L 3679.83 477.883 L 3679.83 477.883 Q 3697.31 493.885 3728.083 493.885 L 3728.083 493.885 L 3728.083 493.885 Q 3758.857 493.885 3780.522 484.038 L 3780.522 484.038 L 3780.522 484.038 Q 3787.415 480.591 3792.831 480.345 L 3792.831 480.345 L 3792.831 480.345 Q 3798.248 480.099 3802.925 484.53 L 3802.925 484.53 L 3802.925 484.53 Q 3807.603 488.962 3807.603 494.378 L 3807.603 494.378 L 3807.603 494.378 Q 3807.603 505.21 3798.986 509.642 L 3798.986 509.642 L 3798.986 509.642 Q 3790.369 514.073 3783.476 517.52 L 3783.476 517.52 L 3783.476 517.52 Q 3776.583 520.966 3768.705 523.428 L 3768.705 523.428 L 3768.705 523.428 Q 3750.487 528.352 3726.36 528.352 L 3726.36 528.352 L 3726.36 528.352 Q 3676.63 528.352 3649.302 500.533 L 3649.302 500.533 L 3649.302 500.533 Q 3621.975 472.713 3621.975 421.505 L 3621.975 421.505 L 3621.975 421.505 Q 3621.975 377.191 3645.117 347.648 L 3645.117 347.648 L 3645.117 347.648 Q 3671.213 314.659 3718.482 314.659 L 3718.482 314.659 L 3718.482 314.659 Q 3763.781 314.659 3789.877 345.187 L 3789.877 345.187 L 3789.877 345.187 Q 3814.496 373.745 3814.496 416.582 L 3814.496 416.582 L 3814.496 416.582 Q 3814.496 423.967 3809.326 429.384 L 3809.326 429.384 L 3809.326 429.384 Q 3804.156 434.8 3796.278 434.8 L 3796.278 434.8 L 3658.904 434.8 Z  M 3718.482 345.679 L 3718.482 345.679 L 3718.482 345.679 Q 3682.538 345.679 3666.29 377.684 L 3666.29 377.684 L 3666.29 377.684 Q 3660.381 389.008 3658.904 404.765 L 3658.904 404.765 L 3778.06 404.765 L 3778.06 404.765 Q 3776.583 376.206 3756.888 359.466 L 3756.888 359.466 L 3756.888 359.466 Q 3741.131 345.679 3718.482 345.679 Z  M 3900.17 335.339 L 3900.17 352.572 L 3900.17 352.572 Q 3928.728 314.659 3963.687 314.659 L 3963.687 314.659 L 3965.657 314.659 L 3965.657 314.659 Q 3973.043 314.659 3978.213 319.829 L 3978.213 319.829 L 3978.213 319.829 Q 3983.383 324.999 3983.383 332.877 L 3983.383 332.877 L 3983.383 332.877 Q 3983.383 340.755 3977.966 345.433 L 3977.966 345.433 L 3977.966 345.433 Q 3972.55 350.11 3964.672 350.11 L 3964.672 350.11 L 3962.703 350.11 L 3962.703 350.11 Q 3942.515 350.11 3926.759 359.958 L 3926.759 359.958 L 3926.759 359.958 Q 3911.003 369.806 3900.17 385.562 L 3900.17 385.562 L 3900.17 508.164 L 3900.17 508.164 Q 3900.17 515.55 3894.754 520.966 L 3894.754 520.966 L 3894.754 520.966 Q 3889.338 526.382 3881.952 526.382 L 3881.952 526.382 L 3881.952 526.382 Q 3874.566 526.382 3869.15 520.966 L 3869.15 520.966 L 3869.15 520.966 Q 3863.734 515.55 3863.734 508.164 L 3863.734 508.164 L 3863.734 335.339 L 3863.734 335.339 Q 3863.734 327.953 3868.904 322.291 L 3868.904 322.291 L 3868.904 322.291 Q 3874.074 316.628 3881.952 316.628 L 3881.952 316.628 L 3881.952 316.628 Q 3889.338 316.628 3894.754 322.045 L 3894.754 322.045 L 3894.754 322.045 Q 3900.17 327.461 3900.17 335.339 L 3900.17 335.339 Z " fill="rgb(255,255,255)"/></g></g></svg>